<svg xmlns="http://www.w3.org/2000/svg" viewBox="0 0 100 100" width="100" height="100">
  <defs>
    <linearGradient id="grad" x1="0%" y1="0%" x2="100%" y2="100%">
      <stop offset="0%" style="stop-color:#667eea;stop-opacity:1"/>
      <stop offset="100%" style="stop-color:#764ba2;stop-opacity:1"/>
    </linearGradient>
  </defs>
  <!-- 背景 -->
  <rect width="100" height="100" rx="20" fill="url(#grad)" />
  
  <!-- 中央に正確に配置したパス -->
  <g 
    transform="translate(24.414 15.893)"
    fill="#fff"
    stroke="#fff"
    stroke-width="0.4"
    stroke-linecap="round"
    fill-rule="evenodd"
  >
    <path d="M 4.053 0 L 6.934 0 L 8.398 0.049 L 12.744 0.098 Q 21.631 0.098 23.438 0.513 Q 25.244 0.928 25.244 2.393 Q 25.244 3.369 22.314 4.81 Q 19.385 6.25 18.848 8.838 Q 17.725 14.111 17.725 36.328 Q 17.725 58.545 18.604 60.059 Q 19.873 62.256 28.442 62.256 Q 37.012 62.256 39.868 60.889 Q 42.725 59.521 45.483 55.2 Q 48.242 50.879 49.365 50.879 Q 51.172 50.879 51.172 53.906 Q 51.172 64.453 48.389 66.797 Q 46.729 68.213 32.129 68.213 L 27.783 68.213 L 26.318 68.164 L 23.438 68.164 Q 0 68.164 0 66.211 Q 0 64.941 2.564 63.428 Q 5.127 61.914 6.006 58.887 Q 6.885 55.859 6.885 39.648 L 7.08 19.092 Q 7.08 8.398 6.348 6.787 Q 5.615 5.176 2.808 4.272 Q 0 3.369 0 1.685 Q 0 0 4.053 0 Z" vector-effect="non-scaling-stroke"/>
  </g>
</svg>
